<svg width="24" height="24" viewBox="0 0 24 24" fill="none" xmlns="http://www.w3.org/2000/svg">
  <path d="M6 3.5h10.5a2.5 2.5 0 0 1 2.5 2.5v0a2 2 0 0 1-2 2H8.5" stroke="currentColor" stroke-width="1.6" stroke-linecap="round" stroke-linejoin="round"/>
  <path d="M5 3.5a2 2 0 0 0-2 2v1a2 2 0 0 0 2 2h2.5V5.5a2 2 0 0 0-2-2Z" stroke="currentColor" stroke-width="1.6" stroke-linejoin="round"/>
  <path d="M7.5 8v10a2.5 2.5 0 0 0 2.5 2.5h9a2 2 0 0 1-2-2V8" stroke="currentColor" stroke-width="1.6" stroke-linecap="round" stroke-linejoin="round"/>
  <path d="M10.5 12.5h5M10.5 16h5" stroke="currentColor" stroke-width="1.6" stroke-linecap="round"/>
</svg>
